# xmcd CD database file
#
# Track frame offsets:
#	182
#	13947
#	26955
#	40580
#	54990
#	69010
#	82900
#	98320
#	112172
#	126217
#	142475
#	156512
#	167770
#	183712
#	198657
#	213085
#	226767
#	241867
#	254690
#	266467
#	279052
#	290745
#	303150
#	316092
#	328715
#
# Disc length: 4538 seconds
#
# Revision: 0
# Processed by: cddbd v1.5.1PL0 Copyright (c) Steve Scherf et al.
# Submitted via: CDex 1.51
#
DISCID=6211b819
DTITLE=Blanche Calloway - Blanch Calloway And Her Joy Boys
DYEAR=1994
DGENRE=Jazz
TTITLE0=Lazy Woman's Blues
TTITLE1=Lonesome Lovesick
TTITLE2=Just A Crazy Song (Hi-Hi-Hi)
TTITLE3=Sugar Blues
TTITLE4=I'm Gettin' Myself Ready For You
TTITLE5=Loveless Love
TTITLE6=Misery
TTITLE7=It's Right Here For You
TTITLE8=It Looks Like Susie
TTITLE9=Without That Gal!
TTITLE10=When I Can't Be With You
TTITLE11=Make Me Know It (If You Mean What You Say)
TTITLE12=I Got What It Takes
TTITLE13=Growlin' Dan
TTITLE14=Concentratin' On You
TTITLE15=Last Dollar
TTITLE16=Blue Memories
TTITLE17=Growlin' Dan
TTITLE18=Catch On
TTITLE19=I Need Lovin'
TTITLE20=What's A Poor Girl Gonna Do?
TTITLE21=You Ain't Living Right
TTITLE22=Louisiana Liza
TTITLE23=I Gotta Sing
TTITLE24=Line-A-Jive
EXTD=YEAR: 1994
EXTT0=
EXTT1=
EXTT2=
EXTT3=
EXTT4=
EXTT5=
EXTT6=
EXTT7=
EXTT8=
EXTT9=
EXTT10=
EXTT11=
EXTT12=
EXTT13=
EXTT14=
EXTT15=
EXTT16=
EXTT17=
EXTT18=
EXTT19=
EXTT20=
EXTT21=
EXTT22=
EXTT23=
EXTT24=
PLAYORDER=
